<?xml version="1.0" standalone="no"?><!DOCTYPE svg PUBLIC "-//W3C//DTD SVG 1.1//EN" "http://www.w3.org/Graphics/SVG/1.1/DTD/svg11.dtd"><svg t="1679821779298" class="icon" viewBox="0 0 1024 1024" version="1.1" xmlns="http://www.w3.org/2000/svg" p-id="7989" xmlns:xlink="http://www.w3.org/1999/xlink" width="200" height="200"><path d="M544.372899 130.685387c-13.504844-6.350095-29.442838-4.253116-40.916059 5.271426l-221.151459 184.063805-176.2541-0.70792-0.150898 0c-10.143123 0-19.915497 4.005684-27.101026 11.191812-7.246087 7.18313-11.348706 16.958502-11.348706 27.190965l-0.801057 307.599248c0 10.233062 4.003286 20.036415 11.228787 27.25652 7.175535 7.276067 16.983485 11.309332 27.216947 11.309332l178.356075 0 220.039213 183.385265c7.026236 5.85503 15.813279 8.876981 24.604318 8.876981 5.550237 0 11.099475-1.201186 16.308943-3.636534 13.505843-6.321714 22.13799-19.886517 22.13799-34.8084L566.541869 165.493188C566.536872 150.600885 557.909721 137.03808 544.372899 130.685387L544.372899 130.685387 544.372899 130.685387zM693.47241 322.945435c-18.960145-8.971917-41.503661-0.800457-50.716414 18.066751-9.186771 18.930165-1.235163 41.838034 17.570087 51.303017 2.442344 1.266142 60.027102 31.200246 60.027102 116.450247 0 91.071653-53.852288 121.255988-55.644073 122.247316-18.995121 9.492564-26.700897 32.615687-17.204335 51.604812 6.786399 13.506842 20.317225 21.273577 34.472428 21.273577 5.765091 0 11.655098-1.292124 17.13938-4.039261 4.008282-2.036619 98.138262-50.750391 98.138262-191.086443C797.249849 373.360653 697.695546 324.949676 693.47241 322.945435L693.47241 322.945435 693.47241 322.945435zM813.187043 210.016401c-17.724982-11.382283-41.25303-6.200196-52.842173 11.498604-11.529183 17.696402-6.47461 41.500263 11.159434 53.152363 4.163177 2.744139 102.671189 69.865431 102.671189 236.935758 0 167.437078-94.494733 234.625324-98.258181 237.18359-17.699 11.808994-22.44778 35.637838-10.668767 53.335638 7.395986 11.104471 19.606707 17.114396 32.031283 17.114396 7.305047 0 14.736009-2.131555 21.301558-6.479607 5.399339-3.573577 132.484775-90.697307 132.484775-301.184597C951.061165 300.690724 818.82622 213.623955 813.187043 210.016401L813.187043 210.016401 813.187043 210.016401z" fill="#FFBE71" p-id="7990"></path></svg>