<?xml version="1.0" standalone="no"?><!DOCTYPE svg PUBLIC "-//W3C//DTD SVG 1.1//EN" "http://www.w3.org/Graphics/SVG/1.1/DTD/svg11.dtd"><svg t="1679822101362" class="icon" viewBox="0 0 1024 1024" version="1.1" xmlns="http://www.w3.org/2000/svg" p-id="8240" xmlns:xlink="http://www.w3.org/1999/xlink" width="200" height="200"><path d="M563.872 113.76c-14.016-6.592-30.56-4.416-42.464 5.472L291.872 310.272 108.928 309.536 108.768 309.536c-10.528 0-20.672 4.16-28.128 11.616-7.52 7.456-11.776 17.6-11.776 28.224l-0.832 319.264c0 10.624 4.16 20.8 11.648 28.288 7.456 7.552 17.632 11.744 28.256 11.744l185.12 0 228.384 190.336c7.296 6.08 16.416 9.216 25.536 9.216 5.76 0 11.52-1.248 16.928-3.776 14.016-6.56 22.976-20.64 22.976-36.128L586.88 149.888C586.88 134.432 577.92 120.352 563.872 113.76L563.872 113.76zM718.624 313.312c-19.68-9.312-43.072-0.832-52.64 18.752-9.536 19.648-1.28 43.424 18.24 53.248 2.528 1.312 62.304 32.384 62.304 120.864 0 94.528-55.904 125.856-57.76 126.88-19.712 9.856-27.712 33.856-17.856 53.568 7.04 14.016 21.088 22.08 35.776 22.08 5.984 0 12.096-1.344 17.792-4.192 4.16-2.112 101.856-52.672 101.856-198.336C826.336 365.632 723.008 315.392 718.624 313.312L718.624 313.312zM842.88 196.096c-18.4-11.808-42.816-6.432-54.848 11.936-11.968 18.368-6.72 43.072 11.584 55.168 4.32 2.848 106.56 72.512 106.56 245.92 0 173.792-98.08 243.52-101.984 246.176-18.368 12.256-23.296 36.992-11.072 55.36 7.68 11.52 20.352 17.76 33.248 17.76 7.584 0 15.296-2.208 22.112-6.72 5.6-3.712 137.504-94.144 137.504-312.608C985.984 290.208 848.736 199.84 842.88 196.096L842.88 196.096zM842.88 196.096" fill="#47D1EB" p-id="8241"></path></svg>