<?xml version="1.0" standalone="no"?><!DOCTYPE svg PUBLIC "-//W3C//DTD SVG 1.1//EN" "http://www.w3.org/Graphics/SVG/1.1/DTD/svg11.dtd"><svg t="1679820585382" class="icon" viewBox="0 0 1024 1024" version="1.1" xmlns="http://www.w3.org/2000/svg" p-id="1314" xmlns:xlink="http://www.w3.org/1999/xlink" width="200" height="200"><path d="M501.76 515.3792a30.976 30.976 0 0 1-13.1072-2.9696L97.5872 327.68a30.72 30.72 0 0 1 0-55.6032l399.36-187.904a30.72 30.72 0 0 1 26.2656 0l399.36 189.44a30.72 30.72 0 0 1-0.5632 55.7568l-407.9616 183.2448a30.72 30.72 0 0 1-12.288 2.7648zM182.7328 299.9296l319.4368 150.8864 334.2848-150.1696-326.2976-154.7776z" fill="#FFBE71" p-id="1315"></path><path d="M505.4976 733.44l-435.0464-201.2672 25.8048-55.7568 409.6512 189.4912 426.5984-191.1808 25.1392 56.064-452.1472 202.6496z" fill="#FFBE71" p-id="1316"></path><path d="M505.4976 955.3408l-435.0464-201.216 25.8048-55.7568 409.6512 189.4912 426.5984-191.232 25.1392 56.064-452.1472 202.6496z" fill="#FFBE71" p-id="1317"></path></svg>