<?xml version="1.0" standalone="no"?><!DOCTYPE svg PUBLIC "-//W3C//DTD SVG 1.1//EN" "http://www.w3.org/Graphics/SVG/1.1/DTD/svg11.dtd"><svg t="1679820657769" class="icon" viewBox="0 0 1070 1024" version="1.1" xmlns="http://www.w3.org/2000/svg" p-id="2611" xmlns:xlink="http://www.w3.org/1999/xlink" width="208.984375" height="200"><path d="M518.27451 982.588235c-25.098039 0-51.45098-2.509804-76.54902-6.27451-18.823529-3.764706-35.137255-17.568627-37.647059-37.647058-5.019608-25.098039-27.607843-43.921569-53.960784-43.921569-12.54902 0-23.843137 3.764706-33.882353 11.294118-15.058824 12.54902-36.392157 12.54902-52.705882 2.509804-55.215686-35.137255-102.901961-79.058824-140.54902-133.019608-12.54902-17.568627-11.294118-40.156863 2.509804-56.470588 8.784314-10.039216 13.803922-22.588235 13.803922-35.137255 0-28.862745-22.588235-52.705882-51.450981-53.960785-21.333333-1.254902-38.901961-16.313725-42.666666-37.647059-6.27451-30.117647-8.784314-61.490196-8.784314-92.862745 0-27.607843 2.509804-53.960784 6.27451-81.568627 3.764706-21.333333 22.588235-37.647059 43.921568-38.901961 30.117647-1.254902 52.705882-25.098039 52.705883-53.960784 0-15.058824-5.019608-27.607843-16.313726-38.901961-15.058824-15.058824-17.568627-40.156863-5.019608-57.72549 36.392157-53.960784 82.823529-99.137255 136.784314-134.27451 17.568627-11.294118 41.411765-10.039216 56.470588 5.019608 10.039216 10.039216 23.843137 15.058824 37.647059 15.058823 28.862745 0 52.705882-22.588235 53.960784-50.196078 1.254902-21.333333 17.568627-38.901961 38.901961-42.666667 57.72549-8.784314 116.705882-7.529412 175.686275 5.019608 18.823529 3.764706 33.882353 20.078431 36.392157 40.156863 3.764706 27.607843 26.352941 47.686275 53.960784 47.686274 11.294118 0 22.588235-3.764706 32.627451-10.039215 16.313725-11.294118 37.647059-12.54902 53.960784-1.254902 48.941176 33.882353 90.352941 76.54902 122.980392 125.490196 12.54902 17.568627 10.039216 42.666667-5.019608 57.72549-10.039216 10.039216-16.313725 23.843137-16.313725 38.901961 0 30.117647 23.843137 53.960784 52.705882 53.960784 22.588235 0 40.156863 16.313725 43.921569 38.901961 5.019608 27.607843 6.27451 53.960784 6.27451 80.313725 0 31.372549-2.509804 62.745098-8.784314 92.862746-3.764706 21.333333-21.333333 36.392157-42.666667 37.647058-28.862745 1.254902-51.45098 25.098039-51.45098 53.960785 0 12.54902 5.019608 25.098039 13.803922 35.137255 13.803922 16.313725 15.058824 38.901961 2.509803 56.470588-32.627451 46.431373-72.784314 86.588235-117.960784 117.960784-16.313725 11.294118-37.647059 11.294118-53.960784 0-10.039216-7.529412-20.078431-11.294118-32.627451-11.294118-27.607843 0-51.45098 20.078431-53.960784 47.686275-2.509804 20.078431-16.313725 35.137255-36.392157 40.156863-31.372549 11.294118-65.254902 13.803922-99.137255 13.803921z m-168.156863-124.235294c43.921569 0 82.823529 31.372549 90.352941 75.294118 1.254902 3.764706 3.764706 6.27451 7.529412 6.27451 53.960784 8.784314 107.921569 7.529412 163.137255-3.764706 3.764706-1.254902 6.27451-3.764706 6.27451-7.529412 5.019608-46.431373 45.176471-81.568627 91.607843-81.568627 20.078431 0 38.901961 6.27451 55.215686 17.568627 2.509804 2.509804 7.529412 2.509804 10.039216 0 42.666667-30.117647 79.058824-66.509804 109.17647-109.176471 2.509804-3.764706 2.509804-7.529412 0-10.039215-15.058824-16.313725-22.588235-38.901961-22.588235-60.235294 0-48.941176 38.901961-89.098039 87.843137-91.607844 3.764706 0 7.529412-2.509804 7.529412-6.274509 5.019608-27.607843 8.784314-57.72549 8.784314-86.588236 0-23.843137-2.509804-48.941176-6.27451-75.294117-1.254902-3.764706-3.764706-6.27451-7.529412-7.529412-50.196078-1.254902-89.098039-41.411765-89.098039-91.607843 0-25.098039 10.039216-47.686275 26.352941-65.254902 2.509804-2.509804 3.764706-7.529412 1.254902-10.039216-30.117647-45.176471-69.019608-84.078431-114.196078-115.45098-2.509804-2.509804-7.529412-2.509804-10.039216 0-16.313725 11.294118-35.137255 17.568627-53.960784 17.568627-46.431373 0-86.588235-35.137255-91.607843-81.568627 0-3.764706-2.509804-6.27451-6.27451-7.529412-53.960784-11.294118-107.921569-12.54902-161.882353-3.764706-3.764706 0-6.27451 3.764706-7.529412 7.529412-3.764706 47.686275-43.921569 85.333333-91.607843 85.333333-23.843137 0-46.431373-8.784314-64-25.098039-5.019608-2.509804-8.784314-2.509804-12.54902 0-50.196078 32.627451-92.862745 74.039216-126.745098 124.235294-2.509804 3.764706-2.509804 7.529412 1.254902 10.039216 17.568627 17.568627 26.352941 40.156863 26.352941 65.254902 0 50.196078-38.901961 90.352941-89.098039 91.607843-3.764706 0-7.529412 2.509804-7.529412 7.529412-3.764706 25.098039-6.27451 50.196078-6.274509 74.039215 0 28.862745 2.509804 57.72549 8.784313 86.588236 1.254902 3.764706 3.764706 6.27451 7.529412 6.274509 48.941176 2.509804 87.843137 42.666667 87.843137 91.607844 0 22.588235-7.529412 43.921569-22.588235 60.235294-2.509804 2.509804-2.509804 7.529412 0 10.039215 35.137255 48.941176 77.803922 90.352941 129.254902 122.980393 2.509804 1.254902 7.529412 1.254902 10.039216 0 15.058824-13.803922 35.137255-20.078431 55.215686-20.078432z" fill="#FFBE71" p-id="2612"></path><path d="M518.27451 739.137255c-131.764706 0-239.686275-107.921569-239.686275-239.686275 0-131.764706 107.921569-239.686275 239.686275-239.686274 38.901961 0 76.54902 10.039216 110.431372 27.607843 8.784314 5.019608 12.54902 16.313725 7.529412 25.098039s-16.313725 12.54902-25.098039 7.529412c-28.862745-15.058824-61.490196-22.588235-94.117647-22.588235-111.686275 0-202.039216 90.352941-202.039216 202.039215 0 111.686275 90.352941 202.039216 202.039216 202.039216 111.686275 0 202.039216-90.352941 202.039216-202.039216 0-22.588235-3.764706-45.176471-11.294118-66.509804-3.764706-10.039216 1.254902-20.078431 11.294118-23.843137 10.039216-3.764706 20.078431 1.254902 23.843137 11.294118 8.784314 25.098039 13.803922 51.45098 13.803921 79.058823 1.254902 133.019608-105.411765 239.686275-238.431372 239.686275zM690.196078 382.745098c-5.019608 0-10.039216-2.509804-13.803921-6.27451l-5.019608-5.019608c-6.27451-7.529412-6.27451-20.078431 1.254902-26.352941s20.078431-6.27451 26.352941 1.254902l5.019608 5.019608c6.27451 7.529412 6.27451 20.078431-2.509804 26.352941-2.509804 3.764706-7.529412 5.019608-11.294118 5.019608z" fill="#FFBE71" p-id="2613"></path></svg>