<?xml version="1.0" standalone="no"?><!DOCTYPE svg PUBLIC "-//W3C//DTD SVG 1.1//EN" "http://www.w3.org/Graphics/SVG/1.1/DTD/svg11.dtd"><svg t="1679820485138" class="icon" viewBox="0 0 1024 1024" version="1.1" xmlns="http://www.w3.org/2000/svg" p-id="1103" xmlns:xlink="http://www.w3.org/1999/xlink" width="200" height="200"><path d="M863.4368 924.16H124.6208a30.72 30.72 0 0 1-30.72-30.72V150.1184a30.72 30.72 0 0 1 30.72-30.72h411.648a30.72 30.72 0 0 1 0 61.44h-380.928V862.72h677.376V476.416a30.72 30.72 0 0 1 61.44 0v417.024a30.72 30.72 0 0 1-30.72 30.72z" fill="#FFBE71" p-id="1104"></path><path d="M658.0736 124.5184v61.44h119.808L470.2208 501.7088l44.032 42.8544 303.104-311.04V352.768h61.44V124.5184h-220.7232z" fill="#FFBE71" p-id="1105"></path></svg>