<?xml version="1.0" standalone="no"?><!DOCTYPE svg PUBLIC "-//W3C//DTD SVG 1.1//EN" "http://www.w3.org/Graphics/SVG/1.1/DTD/svg11.dtd"><svg t="1679758494980" class="icon" viewBox="0 0 1024 1024" version="1.1" xmlns="http://www.w3.org/2000/svg" p-id="3775" xmlns:xlink="http://www.w3.org/1999/xlink" width="200" height="200"><path d="M850.432 988.672c-19.968 0-39.168-7.936-53.76-22.784l-262.656-241.664-1.536-1.536c-6.144-6.4-14.336-9.984-23.04-9.984-8.96 0-17.152 3.584-23.04 9.984l-1.536 1.536-261.12 241.152c-21.248 22.016-52.992 28.928-81.664 17.664-28.672-11.52-47.36-38.912-47.36-69.888V146.176c0-56.576 45.824-102.4 102.4-102.4h626.176c56.576 0 102.4 45.824 102.4 102.4v767.488c0 30.976-18.688 58.368-47.36 69.888-9.216 3.328-18.688 5.12-27.904 5.12zM576.256 679.68l262.656 241.408 1.536 1.536c5.632 5.888 11.776 4.608 15.104 3.328s8.704-4.608 8.704-12.8V146.176c0-22.528-18.432-40.96-40.96-40.96H197.12c-22.528 0-40.96 18.432-40.96 40.96v766.976c0 8.192 5.376 11.52 8.704 12.8s9.472 2.56 15.104-3.328l1.536-1.536 260.864-240.896c17.408-18.176 41.728-28.672 67.072-28.672 25.088-0.256 49.408 10.24 66.816 28.16z" fill="#070001" p-id="3776"></path><path d="M664.832 419.84H361.728c-16.896 0-30.72-13.824-30.72-30.72s13.824-30.72 30.72-30.72h303.104c16.896 0 30.72 13.824 30.72 30.72s-13.568 30.72-30.72 30.72z" fill="#D63123" p-id="3777"></path><path d="M512.512 566.528c-16.896 0-30.72-13.824-30.72-30.72V232.704c0-16.896 13.824-30.72 30.72-30.72s30.72 13.824 30.72 30.72v303.104c0 16.896-13.824 30.72-30.72 30.72z" fill="#D63123" p-id="3778"></path></svg>